<?xml version="1.0" encoding="UTF-8" standalone="no"?> <svg width="64" height="64" viewBox="0 0 64 64" fill="none" xmlns="http://www.w3.org/2000/svg">
<path d="M57 15.75H52.65L50.13 10.46C50.027 10.2477 49.8665 10.0686 49.6667 9.94311C49.4669 9.81759 49.2359 9.75068 49 9.75H33.71C33.4793 9.75139 33.2535 9.81659 33.0576 9.93837C32.8617 10.0602 32.7033 10.2338 32.6 10.44L29.94 15.75H17.82V14.29C17.8455 13.81 17.773 13.3298 17.6069 12.8786C17.4408 12.4275 17.1846 12.015 16.8538 11.6662C16.523 11.3173 16.1247 11.0395 15.683 10.8497C15.2414 10.6598 14.7657 10.5619 14.285 10.5619C13.8043 10.5619 13.3286 10.6598 12.887 10.8497C12.4453 11.0395 12.047 11.3173 11.7162 11.6662C11.3854 12.015 11.1292 12.4275 10.9631 12.8786C10.797 13.3298 10.7245 13.81 10.75 14.29V15.75H7C5.87364 15.7526 4.79417 16.2013 3.99771 16.9977C3.20126 17.7942 2.75264 18.8736 2.75 20V50C2.75264 51.1264 3.20126 52.2058 3.99771 53.0023C4.79417 53.7987 5.87364 54.2474 7 54.25H57C58.1264 54.2474 59.2058 53.7987 60.0023 53.0023C60.7987 52.2058 61.2474 51.1264 61.25 50V20C61.2474 18.8736 60.7987 17.7942 60.0023 16.9977C59.2058 16.2013 58.1264 15.7526 57 15.75V15.75ZM13.25 14.29C13.25 14.0155 13.359 13.7522 13.5531 13.5581C13.7472 13.364 14.0105 13.255 14.285 13.255C14.5595 13.255 14.8228 13.364 15.0169 13.5581C15.211 13.7522 15.32 14.0155 15.32 14.29V15.75H13.25V14.29ZM58.75 50C58.7474 50.4633 58.5622 50.9069 58.2345 51.2345C57.9069 51.5622 57.4633 51.7474 57 51.75H7C6.53668 51.7474 6.09309 51.5622 5.76546 51.2345C5.43784 50.9069 5.25263 50.4633 5.25 50V20C5.25263 19.5367 5.43784 19.0931 5.76546 18.7655C6.09309 18.4378 6.53668 18.2526 7 18.25H30.71C30.9424 18.2505 31.1703 18.1861 31.3681 18.0642C31.5659 17.9424 31.7259 17.7677 31.83 17.56L34.49 12.25H48.21L50.73 17.54C50.8311 17.7538 50.9911 17.9342 51.1913 18.06C51.3915 18.1858 51.6236 18.2517 51.86 18.25H57C57.4633 18.2526 57.9069 18.4378 58.2345 18.7655C58.5622 19.0931 58.7474 19.5367 58.75 20V50Z" fill="black"/>
<path d="M40.36 22.3899C37.8082 22.3879 35.3131 23.1428 33.1904 24.5591C31.0677 25.9753 29.4127 27.9894 28.4348 30.3463C27.4569 32.7033 27.2 35.2974 27.6966 37.8004C28.1932 40.3034 29.421 42.6029 31.2247 44.408C33.0284 46.2131 35.327 47.4427 37.8296 47.9413C40.3322 48.4399 42.9265 48.185 45.2843 47.2089C47.642 46.2328 49.6573 44.5794 51.0752 42.4578C52.4931 40.3362 53.25 37.8417 53.25 35.2899C53.2447 31.872 51.8852 28.5954 49.4693 26.1776C47.0534 23.7598 43.7779 22.3978 40.36 22.3899V22.3899ZM40.36 45.6799C38.3022 45.6819 36.2901 45.0734 34.5783 43.9313C32.8665 42.7893 31.5319 41.1652 30.7435 39.2644C29.9551 37.3637 29.7483 35.2717 30.1493 33.2534C30.5503 31.2351 31.541 29.3811 32.9961 27.926C34.4511 26.4709 36.3051 25.4802 38.3235 25.0792C40.3418 24.6783 42.4337 24.8851 44.3345 25.6735C46.2352 26.4619 47.8594 27.7964 49.0014 29.5082C50.1434 31.22 50.7519 33.2321 50.75 35.2899C50.7447 38.0439 49.6483 40.6835 47.701 42.6309C45.7536 44.5783 43.1139 45.6746 40.36 45.6799V45.6799Z" fill="black"/>
</svg>
